<svg xmlns="http://www.w3.org/2000/svg" viewBox="0 0 60 60" fill="none">
  <!-- Cafe owner avatar -->
  <circle cx="30" cy="30" r="28" fill="#FFF7ED"/>
  <!-- Hair -->
  <path d="M14 25 Q14 12 30 12 Q46 12 46 25" fill="#78716C"/>
  <!-- Face -->
  <circle cx="30" cy="28" r="12" fill="#FDBA74"/>
  <!-- Eyes -->
  <circle cx="26" cy="27" r="1.5" fill="#44403C"/>
  <circle cx="34" cy="27" r="1.5" fill="#44403C"/>
  <!-- Smile -->
  <path d="M25 32 Q30 36 35 32" stroke="#44403C" stroke-width="1.5" stroke-linecap="round" fill="none"/>
  <!-- Apron/collar -->
  <path d="M18 42 Q18 38 30 38 Q42 38 42 42 L42 52 Q36 48 30 48 Q24 48 18 52 Z" fill="#F97316"/>
  <!-- Coffee cup icon -->
  <rect x="26" y="44" width="8" height="6" rx="1" fill="white" opacity="0.8"/>
  <path d="M34 46 Q37 46 37 48 Q37 50 34 50" stroke="white" stroke-width="1" fill="none" opacity="0.8"/>
</svg>
